<?xml version="1.0" encoding="UTF-8" standalone="no"?>
<!-- Created with Inkscape (http://www.inkscape.org/) -->

<svg
   width="100"
   height="160"
   viewBox="0 0 100 160"
   version="1.1"
   id="svg1"
   xml:space="preserve"
   xmlns="http://www.w3.org/2000/svg"
   xmlns:svg="http://www.w3.org/2000/svg">
   <path
     style="fill:#000000;stroke-width:0.543012"
     d="m 27.340643,113.66453 -0.351844,43.22096 -26.670263,2.39315 C 0.318536,159.27864 0.044908,67.017713 0,20.8871 13.546265,11.812997 42.433593,-4.7003509 65.812697,1.2706882 92.982952,8.2099906 94.329582,39.168502 92.454222,52.108975 88.864122,76.881564 69.367408,84.9501 55.405443,85.172962 L 100,137.05146 57.871724,160 Z m -5.929869,38.06696 c 0,0 0.245597,-67.808174 -0.147179,-136.673677 C 11.053611,20.172823 5.757629,23.659355 5.754688,23.865573 5.358307,51.662279 5.855641,153.09805 5.855641,153.09805 Z M 91.034942,135.53139 35.986653,75.451016 c 3.762497,1.064743 9.645243,2.820879 11.241812,3.214525 C 60.950691,82.048874 84.233012,76.511015 87.167602,49.041438 87.934862,39.173026 87.858922,9.7028412 60.182264,5.9293862 51.256216,4.7124017 40.230237,6.9145686 26.9576,12.450867 l -0.04765,90.272473 32.781584,49.8954 z"
     id="path_rereadlogo_regular"></path></svg>