<?xml version="1.0" encoding="UTF-8" standalone="no"?>
<!-- Created with Inkscape (http://www.inkscape.org/) -->

<svg
   width="100"
   height="156"
   viewBox="0 0 100 156"
   version="1.1"
   id="svg1"
   xml:space="preserve"
   xmlns="http://www.w3.org/2000/svg"
   xmlns:svg="http://www.w3.org/2000/svg">
   <path
     style="fill:#000000;stroke-width:0.852939"
     d="m 30.20226,116.9427 -0.31234,35.69939 -29.50949,2.58972 c 0,0 -0.37588,-89.633369 -0.38043,-134.450237 5.96955,-3.898688 9.81072,-6.39676 16.69963,-9.877331 C 29.68202,4.3449818 45.84031,-1.4952683 59.92813,0.3431435 93.97368,4.7859714 95.30897,42.693946 90.32848,58.662928 86.59056,70.647878 77.95284,81.1562 60.20686,85.073364 60.06094,85.056404 100,132.62667 100,132.62667 L 56.55369,156 Z m -9.94692,26.83029 c 0,0 0.76836,-82.646476 -0.19962,-123.776009 -3.61082,1.743806 -6.97797,3.930288 -10.43906,5.942822 0.0757,39.593866 0.34952,118.781187 0.34952,118.781187 z M 85.05732,129.8281 c 0,0 -46.79264,-55.031813 -46.668,-55.132936 4.60312,0.893772 9.05587,1.355709 15.77164,1.21307 11.504,-0.244351 23.156,-6.850569 27.16821,-20.742803 C 84.3817,44.596066 87.44059,-7.0587968 29.78853,15.375623 v 83.340869 l 29.97648,44.933028 z"
     id="path_rereadlogo_bold" /></svg>