<?xml version="1.0" standalone="no"?>
<!DOCTYPE svg PUBLIC "-//W3C//DTD SVG 20010904//EN"
 "http://www.w3.org/TR/2001/REC-SVG-20010904/DTD/svg10.dtd">
<svg version="1.0" xmlns="http://www.w3.org/2000/svg"
 width="1248.000000pt" height="1248.000000pt" viewBox="0 0 1248.000000 1248.000000"
 preserveAspectRatio="xMidYMid meet">
<metadata>
Created by potrace 1.14, written by Peter Selinger 2001-2017
</metadata>
<g transform="translate(0.000000,1248.000000) scale(0.100000,-0.100000)"
fill="#000000" stroke="none">
<path d="M6358 12475 c-2 -2 -41 -6 -87 -9 -47 -4 -98 -9 -115 -11 -17 -2 -51
-6 -76 -9 -25 -3 -67 -8 -95 -12 -27 -4 -57 -8 -65 -8 -9 -1 -21 -5 -28 -10
-6 -4 -16 -5 -20 -2 -4 3 -28 0 -53 -5 -24 -6 -53 -12 -64 -14 -11 -2 -31 -6
-45 -9 -14 -2 -47 -10 -75 -16 -27 -6 -61 -14 -75 -16 -14 -3 -41 -9 -60 -14
-19 -5 -46 -11 -60 -14 -26 -6 -56 -13 -155 -41 -33 -9 -67 -18 -75 -20 -29
-7 -146 -44 -260 -81 -63 -21 -119 -39 -125 -40 -23 -6 -334 -123 -351 -132
-11 -6 -21 -10 -24 -10 -3 1 -26 -9 -52 -21 -26 -11 -53 -21 -60 -21 -8 0 -22
-6 -33 -14 -11 -7 -31 -17 -45 -21 -14 -4 -57 -23 -97 -41 -40 -19 -74 -34
-77 -34 -19 0 -650 -309 -654 -321 -2 -5 -9 -9 -15 -9 -7 0 -23 -6 -37 -13
-94 -50 -181 -98 -215 -117 -22 -13 -65 -37 -95 -53 -30 -17 -57 -33 -60 -37
-3 -3 -12 -9 -22 -13 -9 -3 -53 -28 -98 -56 -45 -28 -86 -51 -91 -51 -5 0 -9
-4 -9 -10 0 -5 -4 -10 -9 -10 -12 0 -345 -212 -349 -222 -2 -5 -10 -8 -18 -8
-8 0 -14 -4 -14 -10 0 -5 -5 -10 -10 -10 -6 0 -42 -21 -81 -47 l-70 -47 6
-2650 c6 -2822 14 -5234 17 -5303 1 -24 -1 -45 -3 -48 -3 -2 -2 -29 1 -60 3
-31 4 -58 1 -61 -3 -3 -4 -24 -2 -47 6 -87 6 -107 -2 -107 -4 0 -5 -5 -2 -11
6 -8 10 -744 14 -2205 l1 -261 43 3 c40 2 101 7 227 19 134 12 277 25 350 30
30 3 75 7 100 9 25 3 79 7 120 11 41 3 95 8 120 11 55 5 159 14 220 19 66 5
178 15 235 20 80 8 166 15 230 20 33 3 87 8 120 11 33 3 83 8 110 10 53 3 130
10 205 18 43 4 198 17 250 20 24 2 25 4 30 96 3 52 5 263 5 467 0 205 3 373 6
373 4 0 3 15 0 33 -4 17 -4 49 0 70 3 20 3 37 -2 37 -4 0 -4 13 1 29 4 16 6
31 4 33 -5 6 -5 11 1 503 2 242 6 614 7 827 2 214 4 388 5 388 2 0 39 -55 84
-122 45 -68 87 -126 93 -130 7 -5 7 -8 1 -8 -7 0 -6 -3 0 -8 6 -4 53 -70 105
-147 51 -77 97 -141 102 -143 4 -2 8 -8 8 -13 0 -13 81 -133 92 -137 4 -2 8
-8 8 -14 0 -11 61 -101 73 -106 4 -2 7 -8 7 -14 0 -6 23 -41 50 -78 28 -37 50
-71 50 -76 0 -5 11 -21 25 -36 14 -15 25 -29 25 -32 0 -5 271 -408 279 -416 3
-3 12 -17 20 -32 8 -15 22 -37 33 -47 10 -11 18 -25 18 -31 0 -5 5 -10 10 -10
6 0 10 -5 10 -10 0 -6 15 -32 33 -58 19 -26 89 -130 158 -232 68 -102 126
-187 129 -190 3 -3 63 -93 135 -200 71 -107 133 -196 137 -198 5 -2 8 -8 8
-13 0 -6 18 -34 40 -64 22 -30 40 -59 40 -65 0 -5 5 -10 10 -10 6 0 10 -7 10
-15 0 -8 5 -15 10 -15 6 0 10 -7 10 -15 0 -8 4 -15 9 -15 5 0 14 -13 21 -30 7
-16 16 -30 20 -30 4 0 15 -16 26 -35 10 -19 22 -35 26 -35 5 0 8 -4 8 -9 0
-11 170 -264 183 -273 9 -5 43 8 57 22 3 3 46 26 95 52 145 74 160 83 163 91
2 4 12 7 23 7 10 0 19 3 19 8 0 4 24 18 53 32 28 14 54 27 57 30 3 3 48 27
100 54 52 27 100 52 105 56 6 4 53 30 105 57 93 50 156 83 275 148 33 18 90
49 128 69 37 20 97 52 135 73 37 20 99 53 137 74 39 20 93 49 120 64 28 15
131 70 230 123 99 53 182 99 183 104 2 4 11 8 21 8 9 0 28 8 41 17 33 23 156
90 203 110 20 9 37 20 37 25 0 4 9 8 20 8 11 0 20 4 20 8 0 5 17 16 38 25 20
9 78 39 127 66 50 28 110 61 135 74 191 101 253 134 310 166 36 21 85 47 110
60 45 23 66 34 230 123 47 25 111 59 142 76 l58 30 -47 59 c-26 32 -52 63 -58
69 -6 6 -27 31 -46 54 -18 23 -38 47 -44 54 -19 21 -120 141 -128 151 -4 5
-17 21 -30 36 -12 14 -40 47 -62 74 -22 26 -49 58 -60 71 -11 12 -27 31 -35
41 -86 106 -371 444 -392 466 -16 16 -28 32 -28 35 0 4 -17 25 -38 48 -20 22
-50 58 -67 79 -16 21 -35 43 -42 50 -10 10 -89 105 -133 159 -8 10 -21 25 -29
33 -7 7 -29 33 -48 56 -19 23 -51 62 -72 87 -21 25 -74 88 -117 140 -43 52
-81 97 -84 100 -3 3 -25 30 -50 60 -43 52 -83 99 -105 124 -6 6 -41 49 -80 96
-38 47 -76 93 -85 102 -16 19 -18 20 -93 111 -72 87 -88 106 -118 141 -15 17
-90 108 -168 201 -79 94 -160 190 -181 215 -21 25 -66 79 -100 120 -34 41 -71
86 -83 100 -12 14 -42 50 -67 80 -25 30 -47 57 -50 60 -5 5 -90 106 -125 149
-11 14 -30 35 -42 48 -13 13 -23 26 -23 29 0 3 -30 40 -66 82 -37 42 -76 88
-88 102 -12 14 -32 41 -46 60 -13 19 -31 40 -40 47 -8 6 -13 13 -10 15 4 4
147 40 210 54 65 14 360 113 378 127 6 5 12 7 12 4 0 -6 42 11 158 64 34 16
63 28 65 28 3 -1 167 84 236 122 363 202 699 513 950 877 39 57 71 105 71 107
0 2 22 42 50 89 65 114 162 318 199 421 6 17 16 44 22 60 7 17 13 33 14 38 2
4 4 9 5 12 1 3 3 8 4 13 3 10 26 84 33 102 3 8 8 24 10 35 6 29 9 38 16 55 13
30 69 291 82 375 5 37 7 52 20 130 2 17 8 59 11 95 4 36 8 79 10 95 18 176 24
563 11 795 -3 63 -7 115 -8 115 0 0 -3 16 -4 35 -9 90 -20 183 -35 275 -6 33
-12 72 -14 87 -3 15 -12 65 -22 110 -18 93 -18 92 -28 133 -4 17 -12 50 -18
75 -5 25 -11 50 -13 55 -1 6 -3 13 -4 17 -24 90 -110 343 -144 420 -8 18 -27
63 -42 101 -15 37 -31 70 -36 73 -5 3 -9 11 -9 18 0 16 -125 246 -169 310 -17
26 -31 51 -31 57 0 5 -3 9 -8 9 -4 0 -16 16 -26 35 -11 19 -23 35 -28 35 -4 0
-8 5 -8 11 0 37 -309 373 -450 491 -296 245 -647 423 -1055 534 -83 23 -248
58 -330 70 -27 4 -57 9 -65 10 -8 2 -32 5 -52 8 -20 2 -42 7 -47 11 -6 3 -11
1 -11 -5 0 -6 -4 -9 -8 -6 -23 14 -90 18 -334 21 -147 2 -268 2 -270 0z m532
-789 c86 -8 187 -21 200 -26 3 -1 8 -2 13 -1 4 1 28 -4 55 -10 26 -6 54 -12
62 -14 8 -1 35 -8 60 -15 25 -7 52 -13 60 -15 31 -6 189 -64 260 -95 460 -201
814 -586 1018 -1110 19 -47 38 -93 43 -102 5 -10 9 -26 9 -36 0 -10 3 -22 7
-26 4 -3 8 -13 9 -21 1 -8 9 -36 17 -62 20 -66 59 -216 62 -238 1 -5 7 -35 13
-65 26 -126 45 -249 56 -380 20 -218 25 -530 13 -715 -13 -202 -18 -258 -22
-264 -2 -4 -6 -38 -10 -76 -4 -39 -9 -73 -11 -76 -2 -4 -6 -25 -9 -48 -9 -67
-33 -171 -61 -261 -14 -47 -28 -95 -31 -107 -3 -13 -10 -23 -16 -23 -6 0 -8
-3 -4 -6 8 -8 -56 -159 -120 -284 -145 -281 -368 -550 -598 -720 -33 -25 -62
-47 -65 -51 -5 -6 -112 -77 -141 -94 -119 -69 -309 -162 -374 -181 -5 -2 -50
-17 -99 -34 -49 -17 -98 -32 -110 -35 -11 -2 -21 -4 -21 -5 0 -1 -7 -3 -15 -5
-8 -1 -33 -8 -55 -13 -22 -6 -57 -13 -77 -16 -21 -2 -41 -7 -45 -9 -4 -3 -33
-8 -64 -11 -31 -4 -67 -9 -80 -11 -113 -22 -813 -22 -939 0 -14 2 -54 6 -90
10 -122 10 -282 32 -370 50 -14 3 -45 8 -69 11 -39 5 -43 4 -30 -9 8 -8 31
-33 50 -57 47 -58 58 -71 105 -126 48 -56 80 -95 91 -109 14 -18 108 -130 113
-135 3 -3 28 -32 55 -65 28 -33 52 -62 55 -65 3 -3 52 -60 109 -128 56 -68
113 -134 124 -147 12 -13 32 -37 44 -53 12 -16 33 -40 45 -53 27 -30 105 -121
133 -157 11 -13 38 -45 60 -70 22 -25 46 -54 54 -65 8 -12 22 -28 30 -37 9 -8
36 -40 61 -69 25 -30 52 -62 60 -70 8 -9 44 -52 80 -96 36 -44 68 -82 71 -85
3 -3 50 -57 103 -120 151 -178 172 -203 196 -230 36 -42 53 -62 107 -127 75
-91 77 -92 94 -111 8 -9 37 -44 65 -77 27 -33 54 -65 59 -71 6 -6 30 -35 55
-64 25 -29 50 -58 55 -64 6 -6 44 -51 85 -101 40 -49 81 -97 89 -106 9 -9 27
-29 40 -45 62 -74 126 -149 131 -154 3 -3 41 -48 85 -100 44 -52 84 -100 90
-106 5 -6 28 -33 50 -60 37 -45 104 -123 115 -134 3 -3 39 -45 79 -95 41 -49
80 -94 85 -100 11 -10 96 -111 126 -149 8 -10 25 -28 38 -39 12 -11 22 -24 22
-28 0 -5 10 -19 23 -32 58 -61 97 -107 97 -116 0 -5 4 -11 9 -13 4 -1 37 -37
72 -78 35 -41 66 -77 69 -80 3 -3 27 -32 55 -65 27 -33 54 -65 60 -71 5 -6 30
-35 55 -65 25 -29 52 -61 60 -69 22 -24 95 -113 103 -127 5 -7 -24 -29 -80
-59 -49 -27 -106 -59 -128 -71 -22 -13 -58 -32 -80 -43 -22 -11 -53 -29 -70
-38 -16 -10 -75 -42 -130 -72 -131 -70 -139 -74 -145 -80 -3 -3 -24 -14 -47
-24 -24 -11 -43 -22 -43 -27 0 -4 -13 -10 -30 -14 -16 -4 -32 -10 -35 -15 -3
-4 -27 -19 -53 -33 -26 -14 -64 -34 -83 -44 -19 -11 -79 -44 -134 -73 -55 -30
-101 -58 -103 -62 -2 -4 -8 -8 -14 -8 -9 0 -67 -31 -303 -160 -27 -15 -81 -45
-120 -66 -38 -21 -88 -48 -110 -60 -22 -13 -65 -36 -95 -52 -30 -17 -89 -48
-130 -71 -41 -22 -78 -41 -81 -41 -4 0 -12 13 -19 30 -7 16 -16 30 -21 30 -5
0 -9 4 -9 9 0 8 -125 197 -156 236 -9 11 -23 35 -32 53 -9 17 -19 32 -24 32
-4 0 -8 5 -8 11 0 6 -13 28 -30 49 -16 21 -30 43 -30 49 0 6 -4 11 -10 11 -5
0 -10 5 -10 10 0 6 -18 35 -40 64 -22 29 -40 55 -40 59 0 3 -36 58 -80 122
-44 64 -80 118 -80 121 0 7 -65 99 -72 102 -5 2 -8 10 -8 17 0 7 -3 15 -8 17
-4 2 -23 28 -42 58 -19 30 -43 64 -52 74 -10 11 -18 25 -18 32 0 7 -3 14 -8
16 -4 2 -27 34 -52 72 -24 38 -49 74 -55 80 -5 6 -16 22 -23 36 -10 21 -64
102 -90 135 -4 6 -21 31 -37 58 -17 26 -47 71 -68 100 -22 28 -43 62 -48 74
-5 13 -13 23 -19 23 -6 0 -9 4 -6 9 4 5 3 11 -2 13 -8 3 -72 95 -72 104 0 3
-5 10 -10 17 -23 26 -110 159 -110 167 0 5 -3 10 -7 12 -12 5 -53 66 -53 78 0
6 -7 13 -15 16 -8 4 -15 12 -15 18 0 7 -8 21 -18 32 -10 10 -21 26 -25 34 -8
18 -30 53 -37 60 -16 16 -90 131 -90 140 0 5 -4 10 -10 10 -5 0 -10 7 -10 15
0 8 -4 15 -8 15 -5 0 -15 12 -23 28 -8 15 -16 29 -19 32 -10 10 -110 161 -110
166 0 3 -8 14 -18 25 -11 10 -25 32 -33 47 -8 15 -16 29 -19 32 -9 9 -130 191
-130 196 0 5 -12 20 -37 49 -7 7 -13 16 -13 19 0 3 -43 68 -95 145 -52 78 -95
145 -95 150 0 5 -3 11 -7 13 -12 5 -73 95 -73 107 0 6 -3 11 -8 11 -4 0 -14
10 -22 23 -13 19 -15 420 -16 3359 l0 3337 40 17 c23 10 46 18 51 19 10 1 53
18 90 35 11 5 106 36 210 71 105 34 199 65 210 69 17 7 142 42 195 55 8 2 15
4 15 5 0 1 7 3 15 5 8 1 35 8 60 15 25 7 53 14 63 16 10 2 26 5 35 8 9 3 28 7
42 10 14 2 48 10 75 16 58 14 58 14 150 29 39 7 77 15 85 18 8 3 29 6 45 8 17
1 44 5 60 8 56 11 160 22 305 33 41 4 76 7 77 8 5 4 387 -3 443 -8z m-3044
-894 c1 -42 5 -239 8 -436 3 -198 8 -362 11 -364 2 -3 0 -12 -5 -22 -5 -10 -7
-20 -3 -23 29 -30 32 -6406 4 -8904 l-1 -62 -42 -6 c-42 -5 -113 -12 -213 -20
-27 -2 -72 -7 -100 -9 -27 -3 -72 -8 -100 -11 -27 -3 -77 -7 -111 -10 -52 -4
-102 -8 -226 -20 -16 -1 -28 0 -29 4 -1 6 -4 712 -13 3616 -12 3565 -16 5858
-11 5877 4 10 13 18 21 18 8 0 14 3 14 8 0 4 17 15 38 25 20 10 96 53 167 97
268 163 574 331 585 322 3 -2 6 -38 6 -80z"/>
</g>
</svg>
